<svg width="243" height="60" viewBox="0 0 243 60" fill="none" xmlns="http://www.w3.org/2000/svg">
<path d="M48.416 46V20.368H52.064V31.36H51.488C51.488 28.864 51.808 26.752 52.448 25.024C53.12 23.264 54.112 21.92 55.424 20.992C56.736 20.064 58.4 19.6 60.416 19.6H60.608C62.624 19.6 64.288 20.064 65.6 20.992C66.944 21.92 67.936 23.264 68.576 25.024C69.216 26.752 69.536 28.864 69.536 31.36H68.192C68.192 28.864 68.528 26.752 69.2 25.024C69.872 23.264 70.864 21.92 72.176 20.992C73.52 20.064 75.2 19.6 77.216 19.6H77.408C79.424 19.6 81.104 20.064 82.448 20.992C83.792 21.92 84.784 23.264 85.424 25.024C86.096 26.752 86.432 28.864 86.432 31.36V46H81.824V30.352C81.824 28.272 81.312 26.672 80.288 25.552C79.264 24.4 77.84 23.824 76.016 23.824C74.128 23.824 72.608 24.432 71.456 25.648C70.304 26.832 69.728 28.496 69.728 30.64V46H65.12V30.352C65.12 28.272 64.608 26.672 63.584 25.552C62.56 24.4 61.136 23.824 59.312 23.824C57.424 23.824 55.904 24.432 54.752 25.648C53.6 26.832 53.024 28.496 53.024 30.64V46H48.416ZM110.373 46V38.32H109.605V29.44C109.605 27.68 109.141 26.352 108.213 25.456C107.317 24.56 105.989 24.112 104.229 24.112C103.237 24.112 102.213 24.128 101.157 24.16C100.101 24.192 99.0931 24.224 98.1331 24.256C97.1731 24.288 96.3411 24.336 95.6371 24.4V20.368C96.3411 20.304 97.0771 20.256 97.8451 20.224C98.6451 20.16 99.4611 20.128 100.293 20.128C101.125 20.096 101.925 20.08 102.693 20.08C105.317 20.08 107.461 20.4 109.125 21.04C110.789 21.648 112.021 22.656 112.821 24.064C113.621 25.472 114.021 27.376 114.021 29.776V46H110.373ZM101.973 46.672C100.053 46.672 98.3891 46.352 96.9811 45.712C95.6051 45.04 94.5331 44.08 93.7651 42.832C93.0291 41.584 92.6611 40.08 92.6611 38.32C92.6611 36.496 93.0611 34.976 93.8611 33.76C94.6931 32.544 95.8931 31.632 97.4611 31.024C99.0291 30.384 100.917 30.064 103.125 30.064H110.085V33.52H102.933C101.077 33.52 99.6531 33.968 98.6611 34.864C97.6691 35.76 97.1731 36.912 97.1731 38.32C97.1731 39.728 97.6691 40.864 98.6611 41.728C99.6531 42.592 101.077 43.024 102.933 43.024C104.021 43.024 105.061 42.832 106.053 42.448C107.045 42.032 107.861 41.36 108.501 40.432C109.173 39.472 109.541 38.16 109.605 36.496L110.853 38.32C110.693 40.144 110.245 41.68 109.509 42.928C108.805 44.144 107.813 45.072 106.533 45.712C105.285 46.352 103.765 46.672 101.973 46.672ZM122.479 46V20.368H126.127V30.928H125.935C125.935 27.184 126.751 24.448 128.383 22.72C130.047 20.96 132.527 20.08 135.823 20.08H136.687V24.208H135.055C132.495 24.208 130.527 24.896 129.151 26.272C127.775 27.616 127.087 29.568 127.087 32.128V46H122.479ZM161.517 55.6V38.368L163.341 34.72C163.245 37.504 162.685 39.792 161.661 41.584C160.637 43.376 159.309 44.704 157.677 45.568C156.077 46.432 154.317 46.864 152.397 46.864C150.573 46.864 148.893 46.512 147.357 45.808C145.853 45.104 144.541 44.128 143.421 42.88C142.333 41.632 141.485 40.208 140.877 38.608C140.269 36.976 139.965 35.248 139.965 33.424V32.56C139.965 30.736 140.269 29.04 140.877 27.472C141.485 25.904 142.349 24.528 143.469 23.344C144.589 22.128 145.917 21.184 147.453 20.512C148.989 19.84 150.701 19.504 152.589 19.504C154.765 19.504 156.669 19.968 158.301 20.896C159.965 21.824 161.277 23.168 162.237 24.928C163.197 26.688 163.725 28.832 163.821 31.36H162.477V20.368H166.125V55.6H161.517ZM153.213 42.64C154.781 42.64 156.205 42.288 157.485 41.584C158.765 40.88 159.789 39.872 160.557 38.56C161.325 37.216 161.709 35.648 161.709 33.856V31.648C161.709 29.888 161.309 28.4 160.509 27.184C159.741 25.936 158.701 24.992 157.389 24.352C156.109 23.68 154.717 23.344 153.213 23.344C151.485 23.344 149.965 23.744 148.653 24.544C147.373 25.344 146.365 26.48 145.629 27.952C144.925 29.392 144.573 31.072 144.573 32.992C144.573 34.912 144.941 36.608 145.677 38.08C146.413 39.52 147.437 40.64 148.749 41.44C150.061 42.24 151.549 42.64 153.213 42.64ZM183.859 46.768C180.819 46.768 178.483 45.776 176.851 43.792C175.219 41.808 174.403 38.944 174.403 35.2V20.32H179.011V36.112C179.011 38.128 179.555 39.712 180.643 40.864C181.731 41.984 183.203 42.544 185.059 42.544C186.979 42.544 188.547 41.936 189.763 40.72C190.979 39.472 191.587 37.776 191.587 35.632V20.32H196.195V46H192.547V35.008H193.123C193.123 37.536 192.787 39.68 192.115 41.44C191.443 43.168 190.435 44.496 189.091 45.424C187.779 46.32 186.099 46.768 184.051 46.768H183.859ZM206.367 46V20.368H210.975V46H206.367ZM202.431 24.016V20.368H210.975V24.016H202.431ZM207.663 16.24C206.639 16.24 205.871 15.968 205.359 15.424C204.879 14.88 204.639 14.192 204.639 13.36C204.639 12.528 204.879 11.84 205.359 11.296C205.871 10.752 206.639 10.48 207.663 10.48C208.687 10.48 209.439 10.752 209.919 11.296C210.431 11.84 210.687 12.528 210.687 13.36C210.687 14.192 210.431 14.88 209.919 15.424C209.439 15.968 208.687 16.24 207.663 16.24ZM220.173 46V10.96H224.781V46H220.173ZM216.621 14.608V10.96H224.781V14.608H216.621ZM233.907 46V10.96H238.515V46H233.907ZM230.355 14.608V10.96H238.515V14.608H230.355Z" fill="#1B1C2A"/>
<path d="M48.416 46V20.368H52.064V31.36H51.488C51.488 28.864 51.808 26.752 52.448 25.024C53.12 23.264 54.112 21.92 55.424 20.992C56.736 20.064 58.4 19.6 60.416 19.6H60.608C62.624 19.6 64.288 20.064 65.6 20.992C66.944 21.92 67.936 23.264 68.576 25.024C69.216 26.752 69.536 28.864 69.536 31.36H68.192C68.192 28.864 68.528 26.752 69.2 25.024C69.872 23.264 70.864 21.92 72.176 20.992C73.52 20.064 75.2 19.6 77.216 19.6H77.408C79.424 19.6 81.104 20.064 82.448 20.992C83.792 21.92 84.784 23.264 85.424 25.024C86.096 26.752 86.432 28.864 86.432 31.36V46H81.824V30.352C81.824 28.272 81.312 26.672 80.288 25.552C79.264 24.4 77.84 23.824 76.016 23.824C74.128 23.824 72.608 24.432 71.456 25.648C70.304 26.832 69.728 28.496 69.728 30.64V46H65.12V30.352C65.12 28.272 64.608 26.672 63.584 25.552C62.56 24.4 61.136 23.824 59.312 23.824C57.424 23.824 55.904 24.432 54.752 25.648C53.6 26.832 53.024 28.496 53.024 30.64V46H48.416ZM110.373 46V38.32H109.605V29.44C109.605 27.68 109.141 26.352 108.213 25.456C107.317 24.56 105.989 24.112 104.229 24.112C103.237 24.112 102.213 24.128 101.157 24.16C100.101 24.192 99.0931 24.224 98.1331 24.256C97.1731 24.288 96.3411 24.336 95.6371 24.4V20.368C96.3411 20.304 97.0771 20.256 97.8451 20.224C98.6451 20.16 99.4611 20.128 100.293 20.128C101.125 20.096 101.925 20.08 102.693 20.08C105.317 20.08 107.461 20.4 109.125 21.04C110.789 21.648 112.021 22.656 112.821 24.064C113.621 25.472 114.021 27.376 114.021 29.776V46H110.373ZM101.973 46.672C100.053 46.672 98.3891 46.352 96.9811 45.712C95.6051 45.04 94.5331 44.08 93.7651 42.832C93.0291 41.584 92.6611 40.08 92.6611 38.32C92.6611 36.496 93.0611 34.976 93.8611 33.76C94.6931 32.544 95.8931 31.632 97.4611 31.024C99.0291 30.384 100.917 30.064 103.125 30.064H110.085V33.52H102.933C101.077 33.52 99.6531 33.968 98.6611 34.864C97.6691 35.76 97.1731 36.912 97.1731 38.32C97.1731 39.728 97.6691 40.864 98.6611 41.728C99.6531 42.592 101.077 43.024 102.933 43.024C104.021 43.024 105.061 42.832 106.053 42.448C107.045 42.032 107.861 41.36 108.501 40.432C109.173 39.472 109.541 38.16 109.605 36.496L110.853 38.32C110.693 40.144 110.245 41.68 109.509 42.928C108.805 44.144 107.813 45.072 106.533 45.712C105.285 46.352 103.765 46.672 101.973 46.672ZM122.479 46V20.368H126.127V30.928H125.935C125.935 27.184 126.751 24.448 128.383 22.72C130.047 20.96 132.527 20.08 135.823 20.08H136.687V24.208H135.055C132.495 24.208 130.527 24.896 129.151 26.272C127.775 27.616 127.087 29.568 127.087 32.128V46H122.479ZM161.517 55.6V38.368L163.341 34.72C163.245 37.504 162.685 39.792 161.661 41.584C160.637 43.376 159.309 44.704 157.677 45.568C156.077 46.432 154.317 46.864 152.397 46.864C150.573 46.864 148.893 46.512 147.357 45.808C145.853 45.104 144.541 44.128 143.421 42.88C142.333 41.632 141.485 40.208 140.877 38.608C140.269 36.976 139.965 35.248 139.965 33.424V32.56C139.965 30.736 140.269 29.04 140.877 27.472C141.485 25.904 142.349 24.528 143.469 23.344C144.589 22.128 145.917 21.184 147.453 20.512C148.989 19.84 150.701 19.504 152.589 19.504C154.765 19.504 156.669 19.968 158.301 20.896C159.965 21.824 161.277 23.168 162.237 24.928C163.197 26.688 163.725 28.832 163.821 31.36H162.477V20.368H166.125V55.6H161.517ZM153.213 42.64C154.781 42.64 156.205 42.288 157.485 41.584C158.765 40.88 159.789 39.872 160.557 38.56C161.325 37.216 161.709 35.648 161.709 33.856V31.648C161.709 29.888 161.309 28.4 160.509 27.184C159.741 25.936 158.701 24.992 157.389 24.352C156.109 23.68 154.717 23.344 153.213 23.344C151.485 23.344 149.965 23.744 148.653 24.544C147.373 25.344 146.365 26.48 145.629 27.952C144.925 29.392 144.573 31.072 144.573 32.992C144.573 34.912 144.941 36.608 145.677 38.08C146.413 39.52 147.437 40.64 148.749 41.44C150.061 42.24 151.549 42.64 153.213 42.64ZM183.859 46.768C180.819 46.768 178.483 45.776 176.851 43.792C175.219 41.808 174.403 38.944 174.403 35.2V20.32H179.011V36.112C179.011 38.128 179.555 39.712 180.643 40.864C181.731 41.984 183.203 42.544 185.059 42.544C186.979 42.544 188.547 41.936 189.763 40.72C190.979 39.472 191.587 37.776 191.587 35.632V20.32H196.195V46H192.547V35.008H193.123C193.123 37.536 192.787 39.68 192.115 41.44C191.443 43.168 190.435 44.496 189.091 45.424C187.779 46.32 186.099 46.768 184.051 46.768H183.859ZM206.367 46V20.368H210.975V46H206.367ZM202.431 24.016V20.368H210.975V24.016H202.431ZM207.663 16.24C206.639 16.24 205.871 15.968 205.359 15.424C204.879 14.88 204.639 14.192 204.639 13.36C204.639 12.528 204.879 11.84 205.359 11.296C205.871 10.752 206.639 10.48 207.663 10.48C208.687 10.48 209.439 10.752 209.919 11.296C210.431 11.84 210.687 12.528 210.687 13.36C210.687 14.192 210.431 14.88 209.919 15.424C209.439 15.968 208.687 16.24 207.663 16.24ZM220.173 46V10.96H224.781V46H220.173ZM216.621 14.608V10.96H224.781V14.608H216.621ZM233.907 46V10.96H238.515V46H233.907ZM230.355 14.608V10.96H238.515V14.608H230.355Z" fill="black" fill-opacity="0.2"/>
<path d="M34 10C37.3137 10 40 12.6863 40 16V40H30V50H6C2.68629 50 1.28855e-07 47.3137 0 44V20H10V10H34ZM4.7998 34.7998V44.7998H14.7998V34.7998H4.7998ZM14.7998 34.7998H24.7998V24.7998H14.7998V34.7998ZM24.7998 24.7998H34.7998V14.7998H24.7998V24.7998Z" fill="#5B5CF6"/>
</svg>
